<svg width="63" height="63" viewBox="0 0 800 724" fill="none" xmlns="http://www.w3.org/2000/svg">
              <path d="M284.788 317.954C281.18 311.896 273.345 309.91 267.289 313.52L118.575 402.097C114.71 404.398 112.34 408.565 112.34 413.064C112.34 417.563 114.71 421.729 118.574 424.031L267.287 512.608C269.334 513.828 271.585 514.409 273.808 514.409C278.158 514.409 282.4 512.182 284.786 508.174C288.395 502.116 286.409 494.281 280.352 490.674L150.053 413.064L280.352 335.454C286.41 331.847 288.397 324.012 284.788 317.954Z" fill="#f53c80"></path>
              <path d="M515.214 508.174C517.602 512.184 521.842 514.409 526.192 514.409C528.415 514.409 530.666 513.828 532.713 512.608L681.426 424.031C685.292 421.728 687.66 417.563 687.66 413.064C687.66 408.565 685.29 404.398 681.426 402.097L532.713 313.52C526.657 309.911 518.819 311.896 515.214 317.954C511.605 324.012 513.592 331.847 519.648 335.454L649.947 413.064L519.648 490.674C513.59 494.281 511.603 502.116 515.214 508.174Z" fill="#f53c80"></path>
              <path d="M448.885 317.37L329.918 494.524C325.988 500.376 327.546 508.308 333.399 512.24C335.585 513.707 338.058 514.409 340.506 514.409C344.616 514.409 348.652 512.426 351.115 508.757L470.082 331.603C474.012 325.751 472.454 317.82 466.601 313.888C460.744 309.957 452.814 311.518 448.885 317.37Z" fill="#f53c80"></path>
              <path d="M787.234 0.297852H12.766C5.71404 0.297852 0 6.0136 0 13.0638V710.936C0 717.986 5.71404 723.702 12.766 723.702H787.234C794.286 723.702 800 717.986 800 710.936V574.766C800 567.716 794.286 562 787.234 562C780.182 562 774.468 567.716 774.468 574.766V698.17H25.5319V127.957H774.468V523.702C774.468 530.752 780.182 536.468 787.234 536.468C794.286 536.468 800 530.752 800 523.702V13.0638C800 6.0136 794.286 0.297852 787.234 0.297852ZM25.5319 25.8298H497.872V102.426H25.5319V25.8298ZM523.404 102.426V25.8298H774.468V102.426H523.404Z" fill="#f53c80"></path>
              <path d="M649.362 50.5106C641.854 50.5106 635.745 56.6196 635.745 64.1276C635.745 71.6357 641.854 77.7447 649.362 77.7447C656.87 77.7447 662.979 71.6357 662.979 64.1276C662.979 56.6196 656.87 50.5106 649.362 50.5106Z" fill="#f53c80"></path>
              <path d="M579.574 50.5106C572.066 50.5106 565.957 56.6196 565.957 64.1276C565.957 71.6357 572.066 77.7447 579.574 77.7447C587.083 77.7447 593.192 71.6357 593.192 64.1276C593.192 56.6196 587.083 50.5106 579.574 50.5106Z" fill="#f53c80"></path>
              <path d="M719.149 50.5106C711.641 50.5106 705.532 56.6196 705.532 64.1276C705.532 71.6357 711.641 77.7447 719.149 77.7447C726.657 77.7447 732.766 71.6357 732.766 64.1276C732.766 56.6196 726.657 50.5106 719.149 50.5106Z" fill="#f53c80"></path>
            </svg>