<svg width="498" height="71" viewBox="0 0 498 71" fill="none" xmlns="http://www.w3.org/2000/svg">
<g clip-path="url(#clip0_1_3)">
<path d="M35.1098 30.4791H0.929241C0.418159 30.4791 0 30.061 0 29.5499V0.929241C0 0.418158 0.418159 0 0.929241 0H35.1098C35.6209 0 36.0391 0.418158 36.0391 0.929241V29.5499C36.0391 30.061 35.6364 30.4791 35.1098 30.4791ZM1.85848 28.6206H34.1806V1.85848H1.85848V28.6206Z" fill="#8C00E4"/>
<path d="M35.1098 8.53353H0.929241C0.418159 8.53353 0 8.11537 0 7.60429C0 7.09321 0.418159 6.67505 0.929241 6.67505H35.1098C35.6209 6.67505 36.0391 7.09321 36.0391 7.60429C36.0391 8.11537 35.6364 8.53353 35.1098 8.53353Z" fill="#8C00E4"/>
<path d="M5.62191 6.28787C4.50682 6.28787 3.60855 5.3896 3.60855 4.27451C3.60855 3.15942 4.50682 2.26115 5.62191 2.26115C6.737 2.26115 7.63526 3.15942 7.63526 4.27451C7.61978 5.3896 6.72151 6.28787 5.62191 6.28787ZM5.62191 4.11964C5.52898 4.11964 5.46703 4.18159 5.46703 4.27451C5.46703 4.35195 5.52898 4.42938 5.62191 4.42938C5.69934 4.42938 5.77678 4.35195 5.77678 4.27451C5.76129 4.19707 5.69934 4.11964 5.62191 4.11964Z" fill="#8C00E4"/>
<path d="M12.8855 6.28787C11.7704 6.28787 10.8721 5.3896 10.8721 4.27451C10.8721 3.15942 11.7704 2.26115 12.8855 2.26115C14.0006 2.26115 14.8988 3.15942 14.8988 4.27451C14.8988 5.3896 14.0006 6.28787 12.8855 6.28787ZM12.8855 4.11964C12.808 4.11964 12.7306 4.18159 12.7306 4.27451C12.7306 4.35195 12.808 4.42938 12.8855 4.42938C12.9784 4.42938 13.0403 4.35195 13.0403 4.27451C13.0403 4.19707 12.9629 4.11964 12.8855 4.11964Z" fill="#8C00E4"/>
<path d="M20.1645 6.28787C19.0495 6.28787 18.1512 5.3896 18.1512 4.27451C18.1512 3.15942 19.0495 2.26115 20.1645 2.26115C21.2796 2.26115 22.1779 3.15942 22.1779 4.27451C22.1779 5.3896 21.2641 6.28787 20.1645 6.28787ZM20.1645 4.11964C20.0871 4.11964 20.0097 4.18159 20.0097 4.27451C20.0097 4.35195 20.0716 4.42938 20.1645 4.42938C20.2575 4.42938 20.3194 4.35195 20.3194 4.27451C20.3194 4.19707 20.242 4.11964 20.1645 4.11964Z" fill="#8C00E4"/>
<path d="M59.7657 70.421H55.5841C55.073 70.421 54.6549 70.0028 54.6549 69.4918V66.3633C52.7809 66.0381 50.9689 65.3566 49.3427 64.3654L46.9886 66.7195C46.8183 66.8899 46.5705 66.9983 46.3382 66.9983C46.0904 66.9983 45.8581 66.9054 45.6877 66.7195L42.7296 63.7614C42.3734 63.4052 42.3734 62.8167 42.7296 62.445L44.9288 60.2303C43.8292 58.6816 43.0394 56.916 42.5902 55.0575H39.2759C38.7649 55.0575 38.3467 54.6394 38.3467 54.1283V49.9467C38.3467 49.4356 38.7649 49.0175 39.2759 49.0175H42.4044C42.7296 47.128 43.4111 45.3315 44.4023 43.7053L42.0482 41.3512C41.692 40.995 41.692 40.4065 42.0482 40.0348L45.0063 37.0767C45.1766 36.9064 45.4244 36.798 45.6567 36.798C45.9045 36.798 46.1368 36.8909 46.3072 37.0767L48.5219 39.2914C50.0861 38.1918 51.8517 37.3865 53.6947 36.9528V33.6385C53.6947 33.1275 54.1128 32.7093 54.6239 32.7093H58.8055C59.3166 32.7093 59.7347 33.1275 59.7347 33.6385V36.767C61.6087 37.0922 63.4207 37.7737 65.0469 38.7648L67.401 36.4108C67.5713 36.2404 67.8191 36.132 68.0514 36.132C68.2992 36.132 68.5315 36.2249 68.7019 36.4108L71.66 39.3689C72.0162 39.7251 72.0162 40.3136 71.66 40.6853L69.4453 42.9C70.5449 44.4487 71.3348 46.2143 71.7839 48.0727H75.1292C75.6402 48.0727 76.0584 48.4909 76.0584 49.002V53.1836C76.0584 53.6947 75.6402 54.1128 75.1292 54.1128H72.0007C71.6755 55.9868 70.994 57.7988 70.0028 59.425L72.3414 61.7791C72.5118 61.9494 72.6202 62.1972 72.6202 62.4295C72.6202 62.6618 72.5273 62.9096 72.3414 63.08L69.3834 66.0381C69.213 66.2084 68.9652 66.3168 68.7329 66.3168C68.4851 66.3168 68.2528 66.2239 68.0824 66.0381L65.8677 63.8234C64.319 64.923 62.5534 65.7283 60.6949 66.162V69.4763C60.6949 70.0183 60.2768 70.421 59.7657 70.421ZM56.4979 68.5625H58.821V65.4186C58.821 64.9695 59.1462 64.5823 59.5799 64.5048C61.6861 64.1176 63.684 63.2039 65.3566 61.872C65.7283 61.5777 66.2549 61.6087 66.5956 61.9494L68.7174 64.0712L70.3591 62.4295L68.1289 60.2148C67.8036 59.9051 67.7727 59.394 68.0205 59.0378C69.244 57.2567 70.0183 55.2124 70.2506 53.0906C70.2971 52.626 70.6998 52.2698 71.1799 52.2698H74.1999V49.9467H71.056C70.6069 49.9467 70.2197 49.6215 70.1422 49.1878C69.755 47.0816 68.8413 45.0837 67.5094 43.4111C67.2151 43.0394 67.2461 42.5128 67.5713 42.1721L69.6931 40.0348L68.0669 38.3932L65.8368 40.6233C65.527 40.9331 65.0159 40.9795 64.6597 40.7317C62.9096 39.5237 60.8498 38.7494 58.7281 38.5016C58.2634 38.4396 57.9072 38.0524 57.9072 37.5723V34.5678H55.5841V37.7117C55.5841 38.1608 55.2589 38.548 54.8252 38.6255C52.7344 39.0126 50.7366 39.9264 49.0485 41.2583C48.6768 41.5526 48.1502 41.5216 47.8095 41.1809L45.6722 39.0436L44.0306 40.6853L46.2607 42.9155C46.586 43.2407 46.6169 43.7363 46.3691 44.108C45.1611 45.8581 44.3868 47.9024 44.139 50.0396C44.0925 50.5043 43.6898 50.8605 43.2097 50.8605H40.2052V53.1836H43.3491C43.7982 53.1836 44.1854 53.5088 44.2629 53.9425C44.6501 56.0487 45.5638 58.0466 46.8957 59.7192C47.19 60.0909 47.159 60.6175 46.8183 60.9582L44.6965 63.08L46.3382 64.7217L48.5683 62.4915C48.8781 62.1817 49.3892 62.1353 49.7609 62.3831C51.5264 63.6066 53.5708 64.3654 55.6925 64.6132C56.1572 64.6597 56.5134 65.0624 56.5134 65.5425V68.5625H56.4979Z" fill="#8C00E4"/>
<path d="M57.1948 61.237C51.8671 61.237 47.5152 56.9005 47.5152 51.5729C47.5152 46.2452 51.8517 41.9088 57.1948 41.9088C62.5379 41.9088 66.8744 46.2452 66.8744 51.5729C66.8744 56.9005 62.5379 61.237 57.1948 61.237ZM57.1948 43.7518C52.8893 43.7518 49.3737 47.2519 49.3737 51.5574C49.3737 55.8629 52.8738 59.363 57.1948 59.363C61.5003 59.363 65.0159 55.8629 65.0159 51.5574C65.0159 47.2674 61.5003 43.7518 57.1948 43.7518Z" fill="#8C00E4"/>
<path d="M14.4032 23.0916C14.1709 23.0916 13.9231 22.9987 13.7528 22.8129L10.5779 19.6225C10.2216 19.2663 10.2216 18.6777 10.5779 18.3061L13.7528 15.1311C14.109 14.7749 14.6975 14.7749 15.0692 15.1311C15.4409 15.4874 15.4254 16.0759 15.0692 16.4476L12.5448 18.972L15.0692 21.4964C15.4254 21.8527 15.4254 22.4412 15.0692 22.8129C14.8679 23.0142 14.6355 23.0916 14.4032 23.0916Z" fill="#8C00E4"/>
<path d="M21.6513 23.0916C21.419 23.0916 21.1712 22.9987 21.0009 22.8129C20.6447 22.4567 20.6447 21.8681 21.0009 21.4964L23.5253 18.972L21.0009 16.4476C20.6447 16.0914 20.6447 15.5028 21.0009 15.1311C21.3571 14.7749 21.9456 14.7749 22.3173 15.1311L25.4922 18.3061C25.8484 18.6623 25.8484 19.2508 25.4922 19.6225L22.3173 22.8129C22.116 22.9987 21.8836 23.0916 21.6513 23.0916Z" fill="#8C00E4"/>
<path d="M16.0294 24.8882C15.921 24.8882 15.7971 24.8727 15.6887 24.8262C15.2086 24.6404 14.9763 24.0983 15.1621 23.6182L19.3902 12.87C19.576 12.3899 20.1181 12.1576 20.5982 12.3434C21.0783 12.5293 21.3106 13.0713 21.1248 13.5514L16.8967 24.2997C16.7573 24.6559 16.4011 24.8882 16.0294 24.8882Z" fill="#8C00E4"/>
<path d="M56.6682 31.8885C56.1571 31.8885 55.739 31.4703 55.739 30.9592V14.0006H38.7029C38.1918 14.0006 37.7737 13.5824 37.7737 13.0713C37.7737 12.5602 38.1918 12.1421 38.7029 12.1421H56.6527C57.1638 12.1421 57.582 12.5602 57.582 13.0713V30.9592C57.5975 31.4703 57.1793 31.8885 56.6682 31.8885Z" fill="#8C00E4"/>
<path d="M56.6682 31.8885C56.3895 31.8885 56.1417 31.7646 55.9558 31.5632L52.8429 27.8927C52.5176 27.5055 52.5641 26.917 52.9513 26.5763C53.3385 26.2511 53.927 26.2975 54.2677 26.6847L56.6682 29.5189L59.0688 26.6847C59.394 26.2975 59.9825 26.2511 60.3852 26.5763C60.7724 26.9015 60.8188 27.49 60.4936 27.8927L57.3807 31.5632C57.1948 31.7646 56.9315 31.8885 56.6682 31.8885Z" fill="#8C00E4"/>
<path d="M35.3886 52.5176H17.4233C16.9122 52.5176 16.494 52.0995 16.494 51.5884V33.7005C16.494 33.1894 16.9122 32.7712 17.4233 32.7712C17.9344 32.7712 18.3525 33.1894 18.3525 33.7005V50.6591H35.3731C35.8842 50.6591 36.3024 51.0773 36.3024 51.5884C36.3024 52.0995 35.8997 52.5176 35.3886 52.5176Z" fill="#8C00E4"/>
<path d="M20.5517 38.3002C20.2884 38.3002 20.0251 38.1918 19.8393 37.975L17.4388 35.1408L15.0382 37.975C14.713 38.3622 14.1245 38.4086 13.7218 38.0834C13.3346 37.7582 13.2881 37.1696 13.6134 36.767L16.7263 33.0965C16.8967 32.8951 17.16 32.7712 17.4388 32.7712C17.7175 32.7712 17.9653 32.8951 18.1512 33.0965L21.2641 36.767C21.5894 37.1542 21.5429 37.7427 21.1557 38.0834C20.9699 38.2383 20.7531 38.3002 20.5517 38.3002Z" fill="#8C00E4"/>
<path d="M139.099 26.9526V10.7786H155.273V59.2316H139.099V43.1266H107.788V53.8402H113.179V48.4489H118.57V59.2316H102.396V37.6662H144.559V53.8402H149.882V16.1699H144.559V32.344H113.179V16.1699H107.788V32.344H102.396V10.7786H118.57V26.9526H139.099ZM217.412 10.7786V33.0351C217.412 47.4121 205.661 59.2316 191.146 59.2316C176.908 59.2316 165.503 48.0342 164.95 33.9337V10.7786H180.778V33.0351C180.778 38.7721 185.409 43.4031 191.146 43.4031C196.883 43.4031 201.307 38.9103 201.514 33.3116V10.7786H206.767V33.0351C206.767 41.606 199.786 48.6562 191.146 48.6562C182.644 48.6562 175.594 41.7442 175.594 33.1734H175.525V16.1008H170.341V33.3807C170.548 44.7164 179.811 53.8402 191.146 53.8402C202.689 53.8402 211.951 44.509 211.951 33.0351V10.7786H217.412ZM267.662 37.7353C240.221 37.7353 239.807 37.6662 239.461 37.6662H239.323C232.411 37.1132 227.089 31.238 227.089 24.2569C227.089 16.792 233.102 10.7786 240.567 10.7786H269.597C275.403 10.7786 280.103 15.4787 280.103 21.3539V26.9526H240.774H240.705H240.636C239.046 26.8835 238.009 25.7084 238.009 24.2569C238.009 22.8054 239.115 21.6304 240.567 21.5613H274.712V21.423C274.712 18.4509 272.431 16.1699 269.459 16.1699H240.567C236.143 16.1699 232.48 19.7641 232.48 24.2569C232.48 28.4041 235.59 31.7219 239.53 32.2748C267.109 32.2748 267.385 32.344 267.869 32.344C274.781 32.8969 280.103 38.8412 280.103 45.7532C280.103 53.2181 274.09 59.2316 266.694 59.2316H237.595C231.789 59.2316 227.089 54.5314 227.089 48.7253V43.0575H266.694C270.081 43.2649 270.081 48.2415 266.694 48.4489H232.48V48.5871C232.48 51.5593 234.761 53.8402 237.733 53.8402H266.694C271.049 53.8402 274.781 50.3842 274.781 45.7532C274.781 41.606 271.671 38.2883 267.662 37.7353ZM326.483 34.4867V10.7786H342.657V59.2316H326.483L300.563 29.2336V20.9392L328.971 53.8402H337.265V16.1699H331.874V49.0018L303.466 16.1699H295.172V53.8402H300.563V37.5279L305.954 43.7487V59.2316H289.78V10.7786H305.954L326.483 34.4867ZM381.433 43.0575L384.543 37.6662L393.944 53.8402H400.165C398.782 51.6284 385.649 29.1644 384.543 26.9526L370.996 50.4533L365.95 59.2316H347.288C348.325 57.5036 355.306 45.3385 362.01 33.6572C365.95 26.8144 370.305 19.1421 375.212 10.7786H381.433L368.577 33.0351L356.619 53.8402H362.84C371.342 38.8412 376.664 29.9939 384.543 16.1699C385.027 16.9993 409.357 59.1624 409.496 59.2316H390.833L381.433 43.0575ZM435.347 59.2316H419.173V10.7786H435.347V48.4489H429.955V16.1699H424.564V53.8402H435.347V59.2316ZM481.726 34.4867V10.7786H497.9V59.2316H481.726L455.806 29.2336V20.9392L484.214 53.8402H492.509V16.1699H487.117V49.0018L458.709 16.1699H450.415V53.8402H455.806V37.5279L461.197 43.7487V59.2316H445.023V10.7786H461.197L481.726 34.4867Z" fill="#F53C80"/>
</g>
<defs>
<clipPath id="clip0_1_3">
<rect width="497.9" height="70.421" fill="white"/>
</clipPath>
</defs>
</svg>
