<svg width="63" height="55" viewBox="0 0 63 55" fill="none" xmlns="http://www.w3.org/2000/svg">
              <mask id="path-1-inside-1_310_46" fill="white">
                <path fill-rule="evenodd" clip-rule="evenodd" d="M8.25201 1.04417C6.37651 1.4514 4.81464 3.03555 4.41116 4.93987C4.2696 5.60807 4.23618 7.25131 4.23448 13.652L4.23242 21.5405L3.29395 21.588C1.88817 21.659 1.05613 22.1605 0.44352 23.3058L0.175781 23.8064V38.0955V52.3845L0.439523 52.8771C0.584473 53.1481 0.92184 53.5674 1.18909 53.8088C2.15215 54.6789 0.719735 54.6247 22.776 54.6247C37.0544 54.6247 42.6903 54.5871 42.9029 54.4903C43.3683 54.2782 43.5088 53.8875 43.4379 53.0028C43.2793 51.0284 41.7645 49.2396 39.7273 48.6213C39.3469 48.5059 38.5376 48.4511 37.1981 48.4503L35.2283 48.449L35.2606 45.3308L35.293 42.2126H41.4688H47.6445L47.7051 47.3591L47.7656 52.5056L48.1093 53.0902C48.475 53.7124 49.2586 54.298 50.0016 54.5045C50.2456 54.5723 52.3338 54.6236 54.8578 54.624C59.8504 54.6249 60.1873 54.5804 61.0414 53.8088C61.3086 53.5674 61.646 53.1481 61.7909 52.8771L62.0547 52.3845V41.1833C62.0547 30.4915 62.0444 29.9629 61.8292 29.5583C61.2184 28.4103 60.3121 27.849 58.9365 27.7669L57.998 27.7108L57.996 16.7372C57.9942 7.6267 57.964 5.62296 57.8186 4.936C57.4094 3.00528 55.8504 1.44741 53.9173 1.03787C52.7199 0.784179 9.42214 0.790112 8.25201 1.04417ZM54.0108 3.17505C54.6626 3.47149 55.2847 4.07272 55.5982 4.70919L55.8789 5.27906L55.9122 16.5105L55.9455 27.7419H53.1183C50.9 27.7419 50.1743 27.7818 49.7482 27.927C48.457 28.3669 47.7051 29.4886 47.7051 30.9747V31.8591H36.3223H24.9395V28.1922C24.9395 25.3857 24.8985 24.3698 24.7648 23.8631L24.5903 23.2009L29.8508 17.9302C34.6364 13.1353 35.1113 12.6236 35.1113 12.2635C35.1113 11.7038 34.6543 11.2732 34.0605 11.2732C33.6204 11.2732 33.4146 11.4626 28.3258 16.5465C23.1768 21.6905 23.0394 21.8166 22.7141 21.6929C22.4941 21.6093 19.6456 21.5662 14.3359 21.5662H6.29102L6.29392 13.7253C6.29586 8.81862 6.34333 5.6806 6.42107 5.3396C6.66677 4.26054 7.5143 3.37159 8.57012 3.08581C9.01914 2.96423 13.7455 2.93722 31.3574 2.95539C51.5794 2.97622 53.617 2.99595 54.0108 3.17505ZM28.6068 5.15506C27.9948 5.4211 27.8713 6.23279 28.362 6.76245C28.6081 7.02801 28.6774 7.03491 31.1152 7.03491C33.5531 7.03491 33.6224 7.02801 33.8684 6.76245C34.3708 6.2202 34.2357 5.41674 33.5973 5.14997C33.0173 4.90766 29.1668 4.91154 28.6068 5.15506ZM34.539 16.6345C29.3654 21.808 29.1777 22.0118 29.1777 22.4527C29.1777 23.027 29.6381 23.5037 30.193 23.5037C30.525 23.5037 31.1789 22.892 35.9878 18.0833C40.9329 13.138 41.4082 12.6279 41.4082 12.2652C41.4082 11.7036 40.9522 11.2732 40.357 11.2732C39.9163 11.2732 39.7114 11.4621 34.539 16.6345ZM22.4805 23.917L22.8203 24.2093V36.2988V48.3884L12.4971 48.4194L2.17383 48.4503V36.3915V24.3327L2.52779 23.9787L2.88174 23.6248H12.5112H22.1407L22.4805 23.917ZM59.7027 30.1545L60.0566 30.5084V39.4787V48.449H54.9102H49.7637V39.4506C49.7637 29.9586 49.7471 30.2475 50.3086 29.9404C50.471 29.8515 52.0004 29.8067 54.9498 29.8042L59.3487 29.8005L59.7027 30.1545ZM11.1953 34.0255C10.5638 34.4218 6.43572 38.6784 6.35071 39.0208C6.25965 39.3876 6.53841 40.0231 6.84139 40.1394C6.94916 40.1807 7.20685 40.2146 7.41392 40.2146C7.74111 40.2146 8.09713 39.9094 10.1287 37.8877L12.4668 35.5606V34.8191C12.4668 34.1421 12.44 34.0655 12.1584 33.9372C11.7428 33.7478 11.6199 33.7591 11.1953 34.0255ZM17.4922 33.9709C17.0121 34.1886 12.7558 38.4851 12.5967 38.9128C12.3496 39.5768 12.814 40.2041 13.5577 40.2107C13.9509 40.2143 14.1654 40.0311 16.425 37.7624C17.7682 36.4138 18.8822 35.2013 18.9005 35.0681C18.9713 34.5543 18.7633 34.1474 18.3395 33.9703C17.8515 33.7663 17.9431 33.7663 17.4922 33.9709ZM47.6769 37.0359L47.7092 40.0935H36.3243H24.9395V37.005V33.9165L36.292 33.9474L47.6445 33.9783L47.6769 37.0359ZM30.763 36.1083C29.7549 36.5114 30.0603 38.0349 31.1491 38.0349C31.5622 38.0349 31.9662 37.7218 32.1214 37.2815C32.2567 36.8977 31.9568 36.3247 31.5266 36.1449C31.3046 36.0522 31.1076 35.9798 31.0888 35.9839C31.0701 35.9882 30.9234 36.0441 30.763 36.1083ZM56.1211 36.6755C55.9879 36.7018 55.1023 37.4945 54.1533 38.4371C52.5722 40.0074 52.4277 40.1873 52.4277 40.5855C52.4277 41.1717 52.8282 41.5466 53.4545 41.5466C53.8889 41.5466 54.0274 41.4415 55.4891 40.0027C56.3518 39.1536 57.1337 38.2817 57.2267 38.0652C57.5494 37.3143 56.9163 36.5186 56.1211 36.6755ZM26.9698 45.3308L27.0022 48.449H25.9708H24.9395V45.2957V42.1423L25.9385 42.1775L26.9375 42.2126L26.9698 45.3308ZM33.1738 45.3005V48.449H31.1152H29.0566V45.3005V42.1521H31.1152H33.1738V45.3005ZM22.8809 50.9958C22.8809 51.6898 22.6113 52.2558 22.1993 52.4264C21.938 52.5347 19.478 52.5624 12.3187 52.5381L2.78596 52.5056L2.51822 52.2379C2.31829 52.0379 2.23716 51.7849 2.19756 51.2388L2.14477 50.5076H12.5128H22.8809V50.9958ZM39.5918 50.7596C40.2613 51.0625 40.7509 51.5142 41.0585 52.112L41.2921 52.5662H33.0074H24.7228L24.8282 52.112C24.8862 51.8624 24.935 51.3992 24.9365 51.0828L24.9395 50.5076L31.9932 50.5102C38.8275 50.5128 39.0638 50.5205 39.5918 50.7596ZM60.0329 51.2388C59.9933 51.7847 59.9122 52.0379 59.7124 52.2379C59.448 52.5023 59.3935 52.5061 55.2399 52.542C52.9274 52.5622 50.8579 52.5459 50.6411 52.5062C50.0078 52.39 49.7637 52.0297 49.7637 51.2112V50.5076H54.9247H60.0857L60.0329 51.2388Z"></path>
              </mask>
              <path fill-rule="evenodd" clip-rule="evenodd" d="M8.25201 1.04417C6.37651 1.4514 4.81464 3.03555 4.41116 4.93987C4.2696 5.60807 4.23618 7.25131 4.23448 13.652L4.23242 21.5405L3.29395 21.588C1.88817 21.659 1.05613 22.1605 0.44352 23.3058L0.175781 23.8064V38.0955V52.3845L0.439523 52.8771C0.584473 53.1481 0.92184 53.5674 1.18909 53.8088C2.15215 54.6789 0.719735 54.6247 22.776 54.6247C37.0544 54.6247 42.6903 54.5871 42.9029 54.4903C43.3683 54.2782 43.5088 53.8875 43.4379 53.0028C43.2793 51.0284 41.7645 49.2396 39.7273 48.6213C39.3469 48.5059 38.5376 48.4511 37.1981 48.4503L35.2283 48.449L35.2606 45.3308L35.293 42.2126H41.4688H47.6445L47.7051 47.3591L47.7656 52.5056L48.1093 53.0902C48.475 53.7124 49.2586 54.298 50.0016 54.5045C50.2456 54.5723 52.3338 54.6236 54.8578 54.624C59.8504 54.6249 60.1873 54.5804 61.0414 53.8088C61.3086 53.5674 61.646 53.1481 61.7909 52.8771L62.0547 52.3845V41.1833C62.0547 30.4915 62.0444 29.9629 61.8292 29.5583C61.2184 28.4103 60.3121 27.849 58.9365 27.7669L57.998 27.7108L57.996 16.7372C57.9942 7.6267 57.964 5.62296 57.8186 4.936C57.4094 3.00528 55.8504 1.44741 53.9173 1.03787C52.7199 0.784179 9.42214 0.790112 8.25201 1.04417ZM54.0108 3.17505C54.6626 3.47149 55.2847 4.07272 55.5982 4.70919L55.8789 5.27906L55.9122 16.5105L55.9455 27.7419H53.1183C50.9 27.7419 50.1743 27.7818 49.7482 27.927C48.457 28.3669 47.7051 29.4886 47.7051 30.9747V31.8591H36.3223H24.9395V28.1922C24.9395 25.3857 24.8985 24.3698 24.7648 23.8631L24.5903 23.2009L29.8508 17.9302C34.6364 13.1353 35.1113 12.6236 35.1113 12.2635C35.1113 11.7038 34.6543 11.2732 34.0605 11.2732C33.6204 11.2732 33.4146 11.4626 28.3258 16.5465C23.1768 21.6905 23.0394 21.8166 22.7141 21.6929C22.4941 21.6093 19.6456 21.5662 14.3359 21.5662H6.29102L6.29392 13.7253C6.29586 8.81862 6.34333 5.6806 6.42107 5.3396C6.66677 4.26054 7.5143 3.37159 8.57012 3.08581C9.01914 2.96423 13.7455 2.93722 31.3574 2.95539C51.5794 2.97622 53.617 2.99595 54.0108 3.17505ZM28.6068 5.15506C27.9948 5.4211 27.8713 6.23279 28.362 6.76245C28.6081 7.02801 28.6774 7.03491 31.1152 7.03491C33.5531 7.03491 33.6224 7.02801 33.8684 6.76245C34.3708 6.2202 34.2357 5.41674 33.5973 5.14997C33.0173 4.90766 29.1668 4.91154 28.6068 5.15506ZM34.539 16.6345C29.3654 21.808 29.1777 22.0118 29.1777 22.4527C29.1777 23.027 29.6381 23.5037 30.193 23.5037C30.525 23.5037 31.1789 22.892 35.9878 18.0833C40.9329 13.138 41.4082 12.6279 41.4082 12.2652C41.4082 11.7036 40.9522 11.2732 40.357 11.2732C39.9163 11.2732 39.7114 11.4621 34.539 16.6345ZM22.4805 23.917L22.8203 24.2093V36.2988V48.3884L12.4971 48.4194L2.17383 48.4503V36.3915V24.3327L2.52779 23.9787L2.88174 23.6248H12.5112H22.1407L22.4805 23.917ZM59.7027 30.1545L60.0566 30.5084V39.4787V48.449H54.9102H49.7637V39.4506C49.7637 29.9586 49.7471 30.2475 50.3086 29.9404C50.471 29.8515 52.0004 29.8067 54.9498 29.8042L59.3487 29.8005L59.7027 30.1545ZM11.1953 34.0255C10.5638 34.4218 6.43572 38.6784 6.35071 39.0208C6.25965 39.3876 6.53841 40.0231 6.84139 40.1394C6.94916 40.1807 7.20685 40.2146 7.41392 40.2146C7.74111 40.2146 8.09713 39.9094 10.1287 37.8877L12.4668 35.5606V34.8191C12.4668 34.1421 12.44 34.0655 12.1584 33.9372C11.7428 33.7478 11.6199 33.7591 11.1953 34.0255ZM17.4922 33.9709C17.0121 34.1886 12.7558 38.4851 12.5967 38.9128C12.3496 39.5768 12.814 40.2041 13.5577 40.2107C13.9509 40.2143 14.1654 40.0311 16.425 37.7624C17.7682 36.4138 18.8822 35.2013 18.9005 35.0681C18.9713 34.5543 18.7633 34.1474 18.3395 33.9703C17.8515 33.7663 17.9431 33.7663 17.4922 33.9709ZM47.6769 37.0359L47.7092 40.0935H36.3243H24.9395V37.005V33.9165L36.292 33.9474L47.6445 33.9783L47.6769 37.0359ZM30.763 36.1083C29.7549 36.5114 30.0603 38.0349 31.1491 38.0349C31.5622 38.0349 31.9662 37.7218 32.1214 37.2815C32.2567 36.8977 31.9568 36.3247 31.5266 36.1449C31.3046 36.0522 31.1076 35.9798 31.0888 35.9839C31.0701 35.9882 30.9234 36.0441 30.763 36.1083ZM56.1211 36.6755C55.9879 36.7018 55.1023 37.4945 54.1533 38.4371C52.5722 40.0074 52.4277 40.1873 52.4277 40.5855C52.4277 41.1717 52.8282 41.5466 53.4545 41.5466C53.8889 41.5466 54.0274 41.4415 55.4891 40.0027C56.3518 39.1536 57.1337 38.2817 57.2267 38.0652C57.5494 37.3143 56.9163 36.5186 56.1211 36.6755ZM26.9698 45.3308L27.0022 48.449H25.9708H24.9395V45.2957V42.1423L25.9385 42.1775L26.9375 42.2126L26.9698 45.3308ZM33.1738 45.3005V48.449H31.1152H29.0566V45.3005V42.1521H31.1152H33.1738V45.3005ZM22.8809 50.9958C22.8809 51.6898 22.6113 52.2558 22.1993 52.4264C21.938 52.5347 19.478 52.5624 12.3187 52.5381L2.78596 52.5056L2.51822 52.2379C2.31829 52.0379 2.23716 51.7849 2.19756 51.2388L2.14477 50.5076H12.5128H22.8809V50.9958ZM39.5918 50.7596C40.2613 51.0625 40.7509 51.5142 41.0585 52.112L41.2921 52.5662H33.0074H24.7228L24.8282 52.112C24.8862 51.8624 24.935 51.3992 24.9365 51.0828L24.9395 50.5076L31.9932 50.5102C38.8275 50.5128 39.0638 50.5205 39.5918 50.7596ZM60.0329 51.2388C59.9933 51.7847 59.9122 52.0379 59.7124 52.2379C59.448 52.5023 59.3935 52.5061 55.2399 52.542C52.9274 52.5622 50.8579 52.5459 50.6411 52.5062C50.0078 52.39 49.7637 52.0297 49.7637 51.2112V50.5076H54.9247H60.0857L60.0329 51.2388Z" fill="#f53c80" stroke="#f53c80" stroke-width="2" mask="url(#path-1-inside-1_310_46)"></path>
            </svg>