<svg width="44" height="21" viewBox="0 0 44 21" fill="none" xmlns="http://www.w3.org/2000/svg">
<rect width="44" height="21" rx="5" fill="#0A211E"/>
<path d="M9.59801 8.90909V10.3864H5.22159V8.90909H9.59801ZM6.22337 16V8.39666C6.22337 7.88269 6.32339 7.45644 6.52344 7.1179C6.72656 6.77936 7.00355 6.52545 7.3544 6.35618C7.70526 6.18691 8.10381 6.10227 8.55007 6.10227C8.85168 6.10227 9.12713 6.12535 9.37642 6.17152C9.62879 6.21768 9.81652 6.25923 9.93963 6.29616L9.58878 7.77344C9.51184 7.74882 9.41643 7.72573 9.30256 7.70419C9.19176 7.68265 9.07789 7.67188 8.96094 7.67188C8.67164 7.67188 8.47005 7.73958 8.35618 7.875C8.24231 8.00734 8.18537 8.19354 8.18537 8.43359V16H6.22337ZM10.7994 16V8.90909H12.7661V16H10.7994ZM11.7874 7.99503C11.495 7.99503 11.2442 7.89808 11.0349 7.70419C10.8287 7.50722 10.7256 7.27178 10.7256 6.99787C10.7256 6.72704 10.8287 6.49467 11.0349 6.30078C11.2442 6.10381 11.495 6.00533 11.7874 6.00533C12.0798 6.00533 12.329 6.10381 12.5352 6.30078C12.7445 6.49467 12.8492 6.72704 12.8492 6.99787C12.8492 7.27178 12.7445 7.50722 12.5352 7.70419C12.329 7.89808 12.0798 7.99503 11.7874 7.99503ZM20.9522 8.90909L18.4732 16H16.2573L13.7782 8.90909H15.8556L17.3283 13.9826H17.4022L18.8702 8.90909H20.9522ZM24.9616 16.1385C24.2322 16.1385 23.6044 15.9908 23.0781 15.6953C22.5549 15.3968 22.1518 14.9751 21.8686 14.4304C21.5855 13.8826 21.4439 13.2347 21.4439 12.4869C21.4439 11.7575 21.5855 11.1173 21.8686 10.5664C22.1518 10.0155 22.5503 9.58617 23.0643 9.27841C23.5813 8.97064 24.1876 8.81676 24.8832 8.81676C25.351 8.81676 25.7865 8.89216 26.1896 9.04297C26.5959 9.1907 26.9498 9.41383 27.2514 9.71236C27.5561 10.0109 27.7931 10.3864 27.9624 10.8388C28.1316 11.2881 28.2163 11.8144 28.2163 12.4176V12.9577H22.2287V11.739H26.3651C26.3651 11.4558 26.3035 11.205 26.1804 10.9865C26.0573 10.768 25.8865 10.5972 25.668 10.4741C25.4525 10.3479 25.2017 10.2848 24.9155 10.2848C24.617 10.2848 24.3523 10.354 24.1214 10.4925C23.8937 10.628 23.7152 10.8111 23.5859 11.0419C23.4567 11.2696 23.3905 11.5236 23.3874 11.8036V12.9624C23.3874 13.3132 23.4521 13.6164 23.5813 13.8718C23.7137 14.1272 23.8999 14.3242 24.1399 14.4627C24.38 14.6012 24.6647 14.6705 24.994 14.6705C25.2125 14.6705 25.4125 14.6397 25.5941 14.5781C25.7757 14.5166 25.9311 14.4242 26.0604 14.3011C26.1896 14.178 26.2881 14.0272 26.3558 13.8487L28.1747 13.9688C28.0824 14.4058 27.8931 14.7874 27.6069 15.1136C27.3237 15.4368 26.9575 15.6892 26.5082 15.8707C26.0619 16.0492 25.5464 16.1385 24.9616 16.1385ZM29.4996 16V8.90909H31.4062V10.1463H31.4801C31.6094 9.7062 31.8263 9.37382 32.131 9.14915C32.4357 8.9214 32.7866 8.80753 33.1836 8.80753C33.2821 8.80753 33.3883 8.81368 33.5021 8.82599C33.616 8.8383 33.716 8.85523 33.8022 8.87678V10.6218C33.7099 10.5941 33.5821 10.5695 33.419 10.5479C33.2559 10.5264 33.1067 10.5156 32.9712 10.5156C32.6819 10.5156 32.4234 10.5787 32.1957 10.7049C31.971 10.828 31.7925 11.0004 31.6602 11.2219C31.5309 11.4435 31.4663 11.699 31.4663 11.9883V16H29.4996ZM34.819 16V8.90909H36.7256V10.1463H36.7994C36.9287 9.7062 37.1457 9.37382 37.4504 9.14915C37.7551 8.9214 38.1059 8.80753 38.5029 8.80753C38.6014 8.80753 38.7076 8.81368 38.8215 8.82599C38.9353 8.8383 39.0354 8.85523 39.1215 8.87678V10.6218C39.0292 10.5941 38.9015 10.5695 38.7384 10.5479C38.5753 10.5264 38.426 10.5156 38.2906 10.5156C38.0013 10.5156 37.7427 10.5787 37.515 10.7049C37.2903 10.828 37.1118 11.0004 36.9795 11.2219C36.8502 11.4435 36.7856 11.699 36.7856 11.9883V16H34.819Z" fill="white"/>
</svg>
