<svg width="14" height="12" viewBox="0 0 14 12" fill="none" xmlns="http://www.w3.org/2000/svg">
<path fill-rule="evenodd" clip-rule="evenodd" d="M2.25 11.6667C1.00736 11.6667 0 10.9824 0 10.1385V5.04438C0 5.02711 0.00126757 5.01004 0.00373507 4.99322H0C0 4.69982 0.1716 4.41843 0.477053 4.21097L5.15901 1.03095C6.03765 0.434142 7.46227 0.434142 8.34097 1.03095L13.0229 4.21098C13.3284 4.41844 13.5 4.69982 13.5 4.99322H13.4963C13.4987 5.01004 13.5 5.02711 13.5 5.04438V10.1385C13.5 10.9824 12.4927 11.6667 11.25 11.6667H2.25ZM7.28032 1.75136L12 4.957V10.1385C12 10.4198 11.6642 10.6479 11.25 10.6479H9V8.10083C9 7.2568 7.99268 6.57262 6.75 6.57262C5.50732 6.57262 4.5 7.2568 4.5 8.10083V10.6479H2.25C1.83579 10.6479 1.5 10.4198 1.5 10.1385V4.95703L6.21968 1.75136C6.51255 1.55242 6.98745 1.55242 7.28032 1.75136Z" fill="black"/>
</svg>
