<svg width="150" height="38" viewBox="0 0 150 38" fill="none" xmlns="http://www.w3.org/2000/svg">
<rect x="5" y="6" width="74" height="27" fill="#232323"/>
<rect x="0.5" y="0.5" width="149" height="37" stroke="currentColor"/>
<path d="M14.2275 24V14.5455H16.2264V18.4464H20.2843V14.5455H22.2786V24H20.2843V20.0945H16.2264V24H14.2275ZM29.7666 14.5455H31.7655V20.6854C31.7655 21.3748 31.6008 21.978 31.2715 22.495C30.9453 23.0121 30.4883 23.4152 29.9004 23.7045C29.3126 23.9908 28.6278 24.1339 27.8461 24.1339C27.0613 24.1339 26.375 23.9908 25.7872 23.7045C25.1993 23.4152 24.7423 23.0121 24.4161 22.495C24.0898 21.978 23.9267 21.3748 23.9267 20.6854V14.5455H25.9256V20.5146C25.9256 20.8746 26.0041 21.1947 26.1611 21.4748C26.3211 21.7549 26.5458 21.9749 26.8351 22.1349C27.1244 22.295 27.4614 22.375 27.8461 22.375C28.2339 22.375 28.5709 22.295 28.8571 22.1349C29.1464 21.9749 29.3695 21.7549 29.5265 21.4748C29.6865 21.1947 29.7666 20.8746 29.7666 20.5146V14.5455ZM38.539 17.2646C38.5021 16.8922 38.3436 16.6029 38.0635 16.3967C37.7835 16.1905 37.4034 16.0874 36.9233 16.0874C36.597 16.0874 36.3216 16.1335 36.0969 16.2259C35.8722 16.3151 35.6999 16.4397 35.5799 16.5998C35.4629 16.7598 35.4044 16.9414 35.4044 17.1445C35.3983 17.3138 35.4337 17.4615 35.5106 17.5877C35.5906 17.7139 35.6999 17.8232 35.8384 17.9155C35.9769 18.0047 36.1369 18.0832 36.3185 18.1509C36.5001 18.2156 36.694 18.271 36.9002 18.3171L37.7496 18.5202C38.162 18.6126 38.5406 18.7357 38.8853 18.8896C39.23 19.0434 39.5285 19.2327 39.7809 19.4574C40.0332 19.6821 40.2286 19.9467 40.3671 20.2514C40.5087 20.5561 40.581 20.9054 40.5841 21.2994C40.581 21.878 40.4333 22.3796 40.1409 22.8043C39.8516 23.226 39.4331 23.5537 38.8853 23.7876C38.3405 24.0185 37.6834 24.1339 36.914 24.1339C36.1508 24.1339 35.486 24.0169 34.9197 23.783C34.3565 23.5491 33.9164 23.2029 33.5994 22.7443C33.2855 22.2827 33.1208 21.7118 33.1054 21.0316H35.0397C35.0613 21.3486 35.1521 21.6133 35.3121 21.8256C35.4752 22.0349 35.6922 22.1934 35.963 22.3011C36.2369 22.4058 36.5462 22.4581 36.8909 22.4581C37.2295 22.4581 37.5234 22.4089 37.7727 22.3104C38.0251 22.2119 38.2205 22.0749 38.359 21.8995C38.4975 21.7241 38.5667 21.5225 38.5667 21.2947C38.5667 21.0824 38.5036 20.9039 38.3774 20.7592C38.2543 20.6146 38.0728 20.4915 37.8327 20.3899C37.5957 20.2884 37.3049 20.196 36.9602 20.1129L35.9307 19.8544C35.1336 19.6605 34.5042 19.3574 34.0426 18.945C33.5809 18.5326 33.3516 17.977 33.3547 17.2784C33.3516 16.706 33.504 16.2058 33.8117 15.7781C34.1226 15.3503 34.5488 15.0163 35.0905 14.7763C35.6322 14.5362 36.2477 14.4162 36.9371 14.4162C37.6388 14.4162 38.2513 14.5362 38.7745 14.7763C39.3007 15.0163 39.7101 15.3503 40.0024 15.7781C40.2948 16.2058 40.4456 16.7013 40.4549 17.2646H38.539ZM49.8367 14.5455V24H48.1101L43.9968 18.0494H43.9276V24H41.9287V14.5455H43.6829L47.7639 20.4915H47.847V14.5455H49.8367ZM53.1179 24H50.9758L54.2397 14.5455H56.8157L60.0749 24H57.9328L55.5646 16.706H55.4907L53.1179 24ZM52.984 20.2837H58.0436V21.8441H52.984V20.2837ZM63.2118 14.5455V24H61.2128V14.5455H63.2118ZM72.7644 14.5455V24H71.0379L66.9246 18.0494H66.8553V24H64.8564V14.5455H66.6107L70.6916 20.4915H70.7747V14.5455H72.7644Z" fill="white"/>
<path d="M94.622 24V22.8136L99.3401 16.1935H94.6128V14.5455H101.851V15.7319L97.1288 22.3519H101.861V24H94.622ZM105.024 24H102.882L106.146 14.5455H108.722L111.981 24H109.839L107.471 16.706H107.397L105.024 24ZM104.89 20.2837H109.95V21.8441H104.89V20.2837ZM113.119 24V14.5455H115.118V18.4464H119.176V14.5455H121.17V24H119.176V20.0945H115.118V24H113.119ZM124.817 14.5455V24H122.818V14.5455H124.817ZM129.813 24H126.462V14.5455H129.841C130.792 14.5455 131.611 14.7347 132.297 15.1133C132.983 15.4888 133.511 16.0289 133.881 16.7337C134.253 17.4384 134.439 18.2817 134.439 19.2635C134.439 20.2483 134.253 21.0947 133.881 21.8026C133.511 22.5104 132.98 23.0536 132.288 23.4322C131.598 23.8107 130.774 24 129.813 24ZM128.461 22.2873H129.73C130.321 22.2873 130.818 22.1826 131.221 21.9734C131.628 21.761 131.932 21.4332 132.136 20.9901C132.342 20.5438 132.445 19.9683 132.445 19.2635C132.445 18.5649 132.342 17.994 132.136 17.5508C131.932 17.1076 131.629 16.7814 131.226 16.5721C130.823 16.3628 130.326 16.2582 129.735 16.2582H128.461V22.2873Z" fill="#232323"/>
</svg>
